<?xml version="1.0" encoding="utf-8"?>
<!-- Generator: Adobe Illustrator 16.0.0, SVG Export Plug-In . SVG Version: 6.00 Build 0)  -->
<!DOCTYPE svg PUBLIC "-//W3C//DTD SVG 1.1//EN" "http://www.w3.org/Graphics/SVG/1.1/DTD/svg11.dtd">
<svg version="1.1" id="Layer_1" xmlns="http://www.w3.org/2000/svg" xmlns:xlink="http://www.w3.org/1999/xlink" x="0px" y="0px"
	 width="303.68px" height="208.413px" viewBox="-133.703 -75.274 303.68 208.413"
	 enable-background="new -133.703 -75.274 303.68 208.413" xml:space="preserve">
<g>
	<path fill="#833746" d="M79.938,99.065c0.095,0.447,0.253,0.888,0.43,1.311c0.161,0.387,0.233,0.927,0.304,1.333
		c0.082,0.484,0.188,0.965,0.238,1.451c0.041,0.438,0.081,0.863,0.121,1.302c0.158,1.875,0.066,3.733-0.334,5.483
		c-0.316,1.39-0.763,2.745-1.434,3.933c-0.803-1.639-1.523-3.523-1.758-5.313c-0.235-1.809-0.724-3.669-0.449-5.434
		c0.076-0.491,0.172-0.952,0.375-1.378c0.195-0.404,0.414-0.729,0.654-1.094C78.565,99.927,79.283,99.562,79.938,99.065"/>
	<path fill="#833746" d="M77.25,99.375c-0.029,0.156-0.24,0.315-0.32,0.458c-0.1,0.176-0.223,0.318-0.313,0.504
		c-0.188,0.392-0.311,0.788-0.43,1.217c-0.236,0.84-0.318,1.689-0.281,2.611c0.072,1.775,0.748,3.494,1.438,5.146
		c0.347,0.826,0.799,1.612,1.283,2.356l0.367,0.563c0.139,0.21,0.131,0.33,0.157,0.581l0.097,0.918
		c0.026,0.269-0.08,0.101-0.228-0.006c-0.647-0.471-1.354-1.146-1.813-1.854c-0.23-0.354-0.527-0.644-0.76-0.999
		c-0.236-0.362-0.51-0.726-0.708-1.111c-0.415-0.813-0.813-1.62-1.063-2.504c-0.127-0.455-0.295-0.896-0.334-1.363
		c-0.039-0.447-0.06-0.91-0.117-1.355c-0.118-0.904,0.048-1.849,0.339-2.632c0.29-0.784,0.827-1.421,1.435-1.881
		c0.19-0.146,0.41-0.236,0.604-0.383C76.784,99.503,77.054,99.538,77.25,99.375"/>
	<path fill="#833746" d="M45.27,91.984c-0.454-0.512-0.869-1.047-1.365-1.5c-0.485-0.442-0.962-0.948-1.429-1.424
		c-1.207,2.956-0.877,7.115,1.104,10.137c0.547,0.831,1.176,1.438,1.961,1.937c0.346,0.219,0.762,0.355,1.131,0.479
		c0.428,0.144,0.818,0.106,1.248,0.104c-0.777-0.476-1.455-0.894-2.1-1.61c-0.547-0.61-0.979-1.372-1.374-2.128
		c-0.426-0.81-0.702-1.707-0.896-2.604c-0.105-0.484-0.227-0.968-0.289-1.457c-0.063-0.48-0.1-0.961-0.178-1.441l-0.006-0.226
		c0.202,0.771,0.449,1.525,0.76,2.229c0.354,0.809,0.637,1.626,1.049,2.404c0.404,0.764,0.744,1.594,1.311,2.226
		c0.54,0.602,1.15,1.098,1.821,1.457c0.353,0.188,0.696,0.372,1.06,0.527c0.219,0.094,0.348,0.097,0.569,0.124
		c0.181,0.021,0.366,0.127,0.541,0.07c-0.069-0.41-0.173-0.938-0.376-1.305c-0.098-0.174-0.121-0.399-0.199-0.591l-0.215-0.616
		c-0.348-0.849-0.691-1.672-1.131-2.469C47.399,94.735,46.414,93.273,45.27,91.984z"/>
	<path fill="#833746" d="M44.349,98.706c0.141,0.212,0.39,0.38,0.566,0.541c0.215,0.193,0.441,0.374,0.668,0.552
		c0.5,0.394,1.032,0.74,1.571,1.055c0.976,0.569,1.953,1.082,2.991,1.407c2.21,0.696,4.424,1.034,6.548,0.36l-0.592,0.939
		c-0.187,0.29-0.394,0.813-0.667,1c-0.205,0.142-0.52,0.044-0.756,0.022c-0.385-0.032-0.771-0.064-1.155-0.117
		c-1.392-0.188-2.787-0.415-4.134-0.947c-1.301-0.517-2.621-1.206-3.779-2.098c-0.495-0.379-1.104-0.831-1.495-1.365
		C43.699,99.484,44.117,99.123,44.349,98.706"/>
	<path fill="#833746" d="M30.597,112.214c0.002,0,0.924-0.23,2.535-0.635l0.004-0.001l0.004-0.001
		c1.605-0.416,3.914-1.016,6.66-1.818l-0.002,0.001c5.486-1.586,12.762-3.93,19.805-6.847l0.006-0.003l0.006-0.003
		C73.573,96.875,87.53,90.844,87.53,90.844l-0.696-1.613c0,0-13.957,6.032-27.916,12.063l0.35,0.808l-0.338-0.813
		c-6.955,2.882-14.176,5.209-19.618,6.781l-0.003,0.001c-2.719,0.796-5.004,1.39-6.608,1.806l0.007-0.002
		c-1.609,0.403-2.529,0.633-2.531,0.633L30.597,112.214z"/>
	<path fill="#833746" d="M75.735,104.519c-0.032-0.251,0.047-0.546,0.077-0.787c0.035-0.291,0.091-0.577,0.146-0.862
		c0.121-0.636,0.297-1.253,0.496-1.852c0.36-1.079,0.752-2.13,1.307-3.081c1.181-2.021,2.553-3.797,4.545-4.815l-1.084-0.251
		c-0.338-0.078-0.85-0.31-1.176-0.253c-0.244,0.043-0.399,0.329-0.558,0.509c-0.254,0.293-0.511,0.578-0.755,0.884
		c-0.879,1.099-1.755,2.212-2.396,3.521c-0.623,1.266-1.162,2.662-1.453,4.112c-0.125,0.62-0.297,1.36-0.242,2.023
		C74.7,104.377,75.269,104.365,75.735,104.519"/>
	<path fill="#833746" d="M21.414,118.838c-0.008,0.456,0.049,0.921,0.129,1.371c0.071,0.411,0.021,0.954-0.008,1.367
		c-0.031,0.49-0.037,0.981-0.104,1.469c-0.065,0.438-0.129,0.863-0.193,1.302c-0.3,1.865-0.865,3.673-1.757,5.3
		c-0.71,1.275-1.563,2.492-2.622,3.492c-0.371-1.786-0.578-3.796-0.322-5.595c0.259-1.814,0.266-3.74,0.998-5.388
		c0.203-0.459,0.418-0.88,0.729-1.246c0.296-0.354,0.594-0.623,0.922-0.928C19.841,119.376,20.645,119.179,21.414,118.838"/>
	<path fill="#833746" d="M18.662,118.548c-0.067,0.146-0.315,0.256-0.43,0.377c-0.141,0.147-0.298,0.265-0.433,0.422
		c-0.284,0.333-0.507,0.688-0.736,1.072c-0.45,0.759-0.755,1.563-0.963,2.469c-0.401,1.743-0.191,3.577,0.061,5.353
		c0.124,0.887,0.371,1.76,0.667,2.601l0.226,0.638c0.083,0.236,0.043,0.354-0.002,0.604l-0.166,0.917
		c-0.049,0.269-0.114,0.079-0.238-0.06c-0.548-0.609-1.09-1.438-1.364-2.237c-0.138-0.399-0.36-0.752-0.498-1.154
		c-0.14-0.41-0.317-0.827-0.409-1.255c-0.193-0.894-0.37-1.775-0.371-2.693c-0.001-0.475-0.047-0.942,0.044-1.409
		c0.087-0.443,0.194-0.898,0.257-1.348c0.129-0.909,0.549-1.784,1.045-2.475c0.494-0.69,1.19-1.177,1.908-1.474
		c0.226-0.096,0.468-0.125,0.694-0.229C18.169,118.571,18.429,118.663,18.662,118.548"/>
	<path fill="#833746" d="M-9.393,102.033c-0.247-0.636-0.447-1.271-0.745-1.858c-0.292-0.575-0.554-1.206-0.814-1.806
		c-1.967,2.332-3.083,6.374-2.307,9.885c0.217,0.971,0.586,1.752,1.14,2.494c0.245,0.327,0.581,0.606,0.882,0.854
		c0.348,0.271,0.722,0.362,1.123,0.496c-0.566-0.704-1.056-1.299-1.407-2.208c-0.299-0.768-0.439-1.633-0.549-2.479
		c-0.118-0.907-0.071-1.847,0.048-2.754c0.063-0.49,0.114-0.983,0.216-1.465c0.1-0.473,0.22-0.935,0.307-1.41l0.066-0.213
		c-0.067,0.793-0.091,1.588-0.042,2.354c0.056,0.882,0.044,1.747,0.162,2.622c0.117,0.858,0.155,1.754,0.467,2.532
		c0.299,0.741,0.699,1.407,1.202,1.963c0.265,0.292,0.525,0.582,0.811,0.851c0.172,0.16,0.293,0.206,0.49,0.307
		c0.162,0.082,0.3,0.241,0.482,0.248c0.068-0.41-0.1-0.942-0.171-1.354c-0.034-0.196-0.236-0.418-0.236-0.623v-0.652
		c0-0.917,0.136-1.808-0.014-2.704C-8.579,105.335-8.772,103.628-9.393,102.033z"/>
	<path fill="#833746" d="M-12.398,108.06c0.057,0.245,0.227,0.492,0.335,0.706c0.131,0.259,0.279,0.508,0.426,0.753
		c0.327,0.556,0.704,1.05,1.099,1.521c0.713,0.848,1.457,1.657,2.322,2.311c1.839,1.425,3.828,2.383,6.056,2.464l-0.86,0.689
		c-0.269,0.217-0.632,0.646-0.953,0.732c-0.24,0.067-0.504-0.123-0.722-0.22c-0.355-0.155-0.708-0.303-1.057-0.474
		c-1.255-0.604-2.498-1.32-3.583-2.258c-1.047-0.917-2.05-1.972-2.814-3.235c-0.328-0.533-0.733-1.164-0.91-1.803
		C-13.247,108.565-12.747,108.371-12.398,108.06"/>
	<path fill="#833746" d="M-29.9,115.357c0.003,0.001,0.931,0.173,2.56,0.476l0.161-0.863l-0.179,0.859
		c0.853,0.179,1.866,0.328,3.026,0.471h0.001h0.001c1.112,0.132,2.416,0.356,3.88,0.479l0.072-0.876l-0.095,0.874
		c3.334,0.361,7.32,0.564,11.577,0.565c3.044,0,6.227-0.104,9.405-0.332H0.505c7.62-0.509,15.165-1.655,20.782-2.757h0.002
		c5.604-1.108,9.301-2.032,9.311-2.036l-0.426-1.705c-0.004,0-0.225,0.056-0.655,0.158c-1.288,0.311-4.396,1.032-8.57,1.858h0.002
		c-5.553,1.087-13.039,2.225-20.562,2.728H0.386H0.384c-3.134,0.224-6.276,0.326-9.28,0.326c-4.2,0-8.131-0.201-11.387-0.555
		l-0.011-0.001l-0.011-0.001c-1.37-0.113-2.637-0.331-3.816-0.473h0.002c-1.132-0.139-2.108-0.284-2.88-0.444l-0.009-0.002
		l-0.009-0.002c-1.629-0.303-2.56-0.477-2.56-0.477L-29.9,115.357z"/>
	<path fill="#833746" d="M15.833,123.189c0.034-0.252,0.194-0.521,0.288-0.746c0.113-0.273,0.244-0.538,0.374-0.803
		c0.287-0.586,0.622-1.145,0.973-1.675c0.634-0.951,1.271-1.909,2.042-2.709c1.645-1.695,3.357-3.15,5.52-3.755l-1.016-0.464
		c-0.313-0.146-0.771-0.477-1.098-0.485c-0.248-0.01-0.457,0.239-0.646,0.385c-0.308,0.235-0.604,0.464-0.923,0.709
		c-1.096,0.872-2.203,1.762-3.145,2.896c-0.906,1.106-1.795,2.304-2.462,3.646c-0.284,0.571-0.652,1.249-0.777,1.906
		C14.827,122.801,15.402,122.926,15.833,123.189"/>
	<path fill="#833746" d="M21.414,118.838c-0.008,0.456,0.049,0.921,0.129,1.371c0.071,0.411,0.021,0.954-0.008,1.367
		c-0.031,0.49-0.037,0.981-0.104,1.469c-0.065,0.438-0.129,0.863-0.193,1.302c-0.3,1.865-0.865,3.673-1.757,5.3
		c-0.71,1.275-1.563,2.492-2.622,3.492c-0.371-1.786-0.578-3.796-0.322-5.595c0.259-1.814,0.266-3.74,0.998-5.388
		c0.203-0.459,0.418-0.88,0.729-1.246c0.296-0.354,0.594-0.623,0.922-0.928C19.841,119.376,20.645,119.179,21.414,118.838"/>
	<path fill="#833746" d="M18.662,118.548c-0.067,0.146-0.315,0.256-0.43,0.377c-0.141,0.147-0.298,0.265-0.433,0.422
		c-0.284,0.333-0.507,0.688-0.736,1.072c-0.45,0.759-0.755,1.563-0.963,2.469c-0.401,1.743-0.191,3.577,0.061,5.353
		c0.124,0.887,0.371,1.76,0.667,2.601l0.226,0.638c0.083,0.236,0.043,0.354-0.002,0.604l-0.166,0.917
		c-0.049,0.269-0.114,0.079-0.238-0.06c-0.548-0.609-1.09-1.438-1.364-2.237c-0.138-0.399-0.36-0.752-0.498-1.154
		c-0.14-0.41-0.317-0.827-0.409-1.255c-0.193-0.894-0.37-1.775-0.371-2.693c-0.001-0.475-0.047-0.942,0.044-1.409
		c0.087-0.443,0.194-0.898,0.257-1.348c0.129-0.909,0.549-1.784,1.045-2.475c0.494-0.69,1.19-1.177,1.908-1.474
		c0.226-0.096,0.468-0.125,0.694-0.229C18.169,118.571,18.429,118.663,18.662,118.548"/>
	<path fill="#833746" d="M-9.393,102.033c-0.247-0.636-0.447-1.271-0.745-1.858c-0.292-0.575-0.554-1.206-0.814-1.806
		c-1.967,2.332-3.083,6.374-2.307,9.885c0.217,0.971,0.586,1.752,1.14,2.494c0.245,0.327,0.581,0.606,0.882,0.854
		c0.348,0.271,0.722,0.362,1.123,0.496c-0.566-0.704-1.056-1.299-1.407-2.208c-0.299-0.768-0.439-1.633-0.549-2.479
		c-0.118-0.907-0.071-1.847,0.048-2.754c0.063-0.49,0.114-0.983,0.216-1.465c0.1-0.473,0.22-0.935,0.307-1.41l0.066-0.213
		c-0.067,0.793-0.091,1.588-0.042,2.354c0.056,0.882,0.044,1.747,0.162,2.622c0.117,0.858,0.155,1.754,0.467,2.532
		c0.299,0.741,0.699,1.407,1.202,1.963c0.265,0.292,0.525,0.582,0.811,0.851c0.172,0.16,0.293,0.206,0.49,0.307
		c0.162,0.082,0.3,0.241,0.482,0.248c0.068-0.41-0.1-0.942-0.171-1.354c-0.034-0.196-0.236-0.418-0.236-0.623v-0.652
		c0-0.917,0.136-1.808-0.014-2.704C-8.579,105.335-8.772,103.628-9.393,102.033z"/>
	<path fill="#833746" d="M-12.398,108.06c0.057,0.245,0.227,0.492,0.335,0.706c0.131,0.259,0.279,0.508,0.426,0.753
		c0.327,0.556,0.704,1.05,1.099,1.521c0.713,0.848,1.457,1.657,2.322,2.311c1.839,1.425,3.828,2.383,6.056,2.464l-0.86,0.689
		c-0.269,0.217-0.632,0.646-0.953,0.732c-0.24,0.067-0.504-0.123-0.722-0.22c-0.355-0.155-0.708-0.303-1.057-0.474
		c-1.255-0.604-2.498-1.32-3.583-2.258c-1.047-0.917-2.05-1.972-2.814-3.235c-0.328-0.533-0.733-1.164-0.91-1.803
		C-13.247,108.565-12.747,108.371-12.398,108.06"/>
	<path fill="#833746" d="M-29.9,115.357c0.003,0.001,0.931,0.173,2.56,0.476l0.161-0.863l-0.179,0.859
		c0.853,0.179,1.866,0.328,3.026,0.471h0.001h0.001c1.112,0.132,2.416,0.356,3.88,0.479l0.072-0.876l-0.095,0.874
		c3.334,0.361,7.32,0.564,11.577,0.565c3.044,0,6.227-0.104,9.405-0.332H0.505c7.62-0.509,15.165-1.655,20.782-2.757h0.002
		c5.604-1.108,9.301-2.032,9.311-2.036l-0.426-1.705c-0.004,0-0.225,0.056-0.655,0.158c-1.288,0.311-4.396,1.032-8.57,1.858h0.002
		c-5.553,1.087-13.039,2.225-20.562,2.728H0.386H0.384c-3.134,0.224-6.276,0.326-9.28,0.326c-4.2,0-8.131-0.201-11.387-0.555
		l-0.011-0.001l-0.011-0.001c-1.37-0.113-2.637-0.331-3.816-0.473h0.002c-1.132-0.139-2.108-0.284-2.88-0.444l-0.009-0.002
		l-0.009-0.002c-1.629-0.303-2.56-0.477-2.56-0.477L-29.9,115.357z"/>
	<path fill="#833746" d="M15.833,123.189c0.034-0.252,0.194-0.521,0.288-0.746c0.113-0.273,0.244-0.538,0.374-0.803
		c0.287-0.586,0.622-1.145,0.973-1.675c0.634-0.951,1.271-1.909,2.042-2.709c1.645-1.695,3.357-3.15,5.52-3.755l-1.016-0.464
		c-0.313-0.146-0.771-0.477-1.098-0.485c-0.248-0.01-0.457,0.239-0.646,0.385c-0.308,0.235-0.604,0.464-0.923,0.709
		c-1.096,0.872-2.203,1.762-3.145,2.896c-0.906,1.106-1.795,2.304-2.462,3.646c-0.284,0.571-0.652,1.249-0.777,1.906
		C14.827,122.801,15.402,122.926,15.833,123.189"/>
	<path fill="#833746" d="M-41.309,117.005c-0.235,0.396-0.416,0.826-0.568,1.26c-0.14,0.396-0.461,0.843-0.694,1.188
		c-0.278,0.416-0.533,0.839-0.841,1.22c-0.285,0.342-0.559,0.671-0.842,1.011c-1.236,1.438-2.717,2.662-4.452,3.547
		c-1.372,0.694-2.88,1.297-4.463,1.441c0.636-1.715,1.562-3.509,2.787-4.854c1.232-1.351,2.288-2.98,3.839-4.007
		c0.43-0.284,0.85-0.536,1.324-0.686c0.453-0.144,0.862-0.212,1.314-0.296C-42.998,116.647-42.19,116.956-41.309,117.005"/>
	<path fill="#833746" d="M-43.635,115.321c-0.135,0.09-0.413,0.051-0.577,0.093c-0.203,0.055-0.403,0.064-0.607,0.133
		c-0.43,0.139-0.818,0.327-1.231,0.538c-0.808,0.408-1.527,0.956-2.199,1.579c-1.304,1.226-2.126,2.877-2.87,4.508
		c-0.373,0.813-0.624,1.688-0.805,2.57l-0.137,0.668c-0.05,0.248-0.154,0.318-0.336,0.501l-0.671,0.661
		c-0.196,0.19-0.155-0.007-0.198-0.197c-0.191-0.846-0.246-1.864-0.056-2.694c0.094-0.416,0.081-0.844,0.18-1.262
		c0.1-0.424,0.169-0.877,0.324-1.283c0.324-0.854,0.66-1.688,1.175-2.454c0.265-0.395,0.487-0.811,0.829-1.143
		c0.327-0.316,0.676-0.633,0.98-0.968c0.62-0.682,1.472-1.166,2.279-1.458c0.801-0.271,1.689-0.35,2.487-0.231
		c0.252,0.034,0.486,0.127,0.74,0.162C-44.084,115.076-43.902,115.294-43.635,115.321"/>
	<path fill="#833746" d="M-56.987,85.292c0.144-0.68,0.328-1.334,0.39-2.017c0.06-0.668,0.176-1.362,0.271-2.035
		c-3.276,0.604-6.463,3.336-7.701,6.73c-0.342,0.938-0.45,1.808-0.382,2.745c0.03,0.414,0.166,0.839,0.286,1.218
		c0.138,0.437,0.4,0.739,0.66,1.093c-0.072-0.915-0.135-1.718,0.065-2.667c0.171-0.808,0.534-1.604,0.91-2.373
		c0.404-0.822,0.971-1.571,1.591-2.248c0.335-0.366,0.659-0.743,1.024-1.075c0.36-0.327,0.734-0.633,1.085-0.972l0.183-0.134
		c-0.512,0.61-0.982,1.253-1.371,1.915c-0.447,0.762-0.948,1.467-1.338,2.259c-0.381,0.776-0.858,1.537-1.035,2.372
		c-0.168,0.795-0.209,1.587-0.106,2.35c0.054,0.4,0.105,0.796,0.188,1.188c0.051,0.234,0.125,0.346,0.232,0.546
		c0.087,0.165,0.109,0.378,0.258,0.493c0.3-0.289,0.68-0.672,0.864-1.047c0.088-0.18,0.263-0.326,0.375-0.498l0.387-0.525
		c0.502-0.768,0.985-1.518,1.387-2.335C-57.971,88.659-57.348,87.001-56.987,85.292z"/>
	<path fill="#833746" d="M-63.147,88.328c-0.087,0.236-0.073,0.543-0.096,0.785c-0.029,0.292-0.038,0.585-0.046,0.874
		c-0.02,0.646,0.016,1.287,0.081,1.916c0.117,1.131,0.268,2.241,0.602,3.289c1.212,3.397,2.009,4.352,4.462,5.866l-0.813,0.594
		c-0.346,0.004,1.899,1.986,1.594,1.859c-0.229-0.095-3.547-2.125-3.969-2.625s-0.604-0.537-1.188-1.703s-1.224-2.484-1.566-3.906
		c-0.331-1.367-0.552-2.852-0.519-4.33c0.014-0.632,0.009-1.394,0.206-2.028C-64.188,88.24-63.636,88.376-63.147,88.328"/>
	<path fill="#833746" d="M-61.099,101.115c3.113,2.261,7.211,4.761,11.224,6.924c4.016,2.164,7.925,3.985,10.718,4.889l0.007,0.002
		l0.007,0.002c1.345,0.408,2.583,0.818,3.726,1.137l0.013,0.003l0.013,0.004c1.121,0.272,2.098,0.512,2.901,0.709l0.209-0.854
		l-0.222,0.851c0.818,0.214,1.469,0.357,1.918,0.449c0.225,0.046,0.398,0.078,0.518,0.1l0.137,0.023l0.034,0.006l0.004,0.001
		l0.125-0.728l-0.136,0.726l0.011,0.002l0.125-0.728l-0.136,0.726l0.159-0.848l-0.186,0.842l0.026,0.006l0.159-0.848l-0.186,0.842
		l0.189-0.856l-0.242,0.844l0.053,0.014l0.189-0.856l-0.242,0.844l0.243-0.846l-0.341,0.812l0.098,0.034l0.243-0.846l-0.341,0.812
		l0.341-0.812l-0.498,0.726l0.157,0.086l0.341-0.812l-0.498,0.726l0.498-0.726l-0.68,0.559c0.081,0.096,0.139,0.136,0.182,0.167
		l0.498-0.726l-0.68,0.559l0.68-0.559h-0.879c0.003,0.285,0.125,0.466,0.199,0.559l0.68-0.559h-0.879h1.759
		c-0.003-0.285-0.125-0.466-0.199-0.558c-0.161-0.181-0.231-0.192-0.281-0.227c-0.093-0.046-0.116-0.048-0.142-0.058l-0.084-0.021
		l-0.043-0.009c-0.11-0.019-0.991-0.164-2.449-0.544l-0.006-0.002l-0.006-0.001c-0.804-0.197-1.781-0.437-2.903-0.711l-0.208,0.854
		l0.234-0.849c-1.079-0.298-2.313-0.707-3.684-1.123l-0.255,0.842l0.27-0.838c-2.6-0.836-6.472-2.63-10.422-4.762
		c-3.953-2.131-8.006-4.604-11.025-6.798L-61.099,101.115z"/>
	<path fill="#833746" d="M-48.652,117.758c0.168-0.19,0.457-0.32,0.663-0.456c0.264-0.161,0.518-0.317,0.771-0.474
		c0.579-0.351,1.179-0.65,1.776-0.927c1.077-0.492,2.131-0.956,3.217-1.24c1.147-0.274,2.296-0.596,3.413-0.729
		c1.12-0.144,2.21-0.107,3.311,0.13c-0.235-0.276-0.458-0.595-0.683-0.889c-0.21-0.28-0.454-0.791-0.734-0.959
		c-0.211-0.126-0.512-0.01-0.746,0.025c-0.382,0.059-0.762,0.106-1.147,0.18c-1.401,0.291-2.794,0.464-4.199,0.938
		c-1.353,0.453-2.792,1.072-4.105,1.832c-0.556,0.314-1.25,0.669-1.721,1.146C-49.343,116.844-48.898,117.285-48.652,117.758"/>
</g>
<g id="Layer_2">
	<g>
		<path fill="#833746" d="M-129.239-41.092c0,3.698,1.403,6.76,3.699,8.928c0.128-7.396,5.485-14.157,13.521-14.157
			c4.464,0,8.545,2.806,8.545,8.291c0,6.25-4.847,11.606-13.265,11.606c-2.296,0-4.464-0.383-6.505-1.147
			c1.276,4.976,4.592,7.271,7.271,7.271c1.403,0,1.148-1.402,2.678-1.402c0.638,0,1.021,0.51,1.021,1.146
			c0,1.148-0.893,1.914-2.806,1.914c-4.719,0-8.928-3.826-10.204-9.82c-4.847-2.68-8.419-7.653-8.419-14.287
			c0-11.861,10.587-22.32,26.403-22.32c14.923,0,21.3,9.948,21.3,20.791c0,12.754-4.336,25.765-7.78,35.203
			c-0.638,1.912,0.51,2.041,1.403,1.021c8.673-10.459,26.658-31.377,28.188-39.923c0.51-2.806,3.699-5.103,4.847-5.103
			s1.658,0.767,1.786,2.807c0.127,3.188,0.127,8.673,0.127,15.815c0,12.627-1.275,22.704-2.423,28.954
			c-0.255,1.53,0.127,1.53,0.893,0.639c11.862-15.562,27.933-37.499,27.933-56.121c0-12.117-5.485-8.291-5.485-12.245
			c0-0.895,0.893-2.042,2.041-2.042c3.316,0,6.76,4.848,6.76,14.541c0,18.75-16.071,38.138-26.147,53.314
			c-7.397,11.098-7.27,14.795-9.311,14.795c-1.786,0-3.954-2.168-3.954-4.464c0-4.592,3.316-9.693,3.316-31.505
			c0-8.418-0.127-11.605-0.382-13.138C-69.8-31.398-84.468-14.817-93.652-2.828c-5.612,7.143-5.229,9.692-7.015,9.692
			c-1.403,0-3.444-2.167-3.444-4.464c0-2.551,1.403-3.571,3.061-8.162c6.25-17.348,9.184-29.208,9.184-39.413
			c0-11.861-5.357-18.111-15.306-18.111C-118.397-63.284-129.239-53.973-129.239-41.092z M-105.77-37.902
			c0-4.082-2.678-6.25-6.377-6.25c-6.887,0-11.479,5.229-11.479,12.5v0.894c2.168,1.402,4.719,2.168,7.525,2.168
			C-109.851-28.592-105.77-32.801-105.77-37.902z"/>
		<path fill="#833746" d="M-32.051,3.295c4.975,0,12.245-5.483,17.602-11.353c0.638-0.638,0.765-0.766,1.148-0.766
			c0.255,0,0.765,0.255,0.765,0.638c0,0.256-0.255,0.384-0.51,0.894c-7.27,8.291-14.541,12.883-20.663,12.883
			c-5.485,0-7.908-2.807-7.908-7.908c0-7.781,8.036-19.771,16.326-19.771c2.423,0,4.209,2.041,4.209,4.336
			c0,5.356-7.27,11.861-14.668,12.627c-0.383,1.274-0.51,2.552-0.51,3.826C-36.26,1.893-34.857,3.295-32.051,3.295z M-24.781-19.28
			c-2.934,0-7.908,5.611-10.204,11.734c6.633-0.383,11.352-6.123,11.352-10.332C-23.633-18.898-24.015-19.28-24.781-19.28z"/>
		<path fill="#833746" d="M5.957-8.949C-1.441,0.362-7.563,5.847-11.262,5.847c-3.571,0-4.847-3.188-4.847-6.761
			c0-10.075,9.566-20.918,17.857-20.918c2.423,0,4.336,0.894,5.484,2.168c3.316-17.983,11.351-34.184,17.984-34.184
			c2.934,0,4.465,1.786,4.465,5.104c0,7.652-7.016,22.575-19.26,35.586C10.039-9.97,9.783-6.653,9.783-3.465
			c0,6.632,0.766,8.545,1.658,9.438c0.255,0.255,0.511,0.382,0.511,0.638c0,0.383-0.383,0.511-0.638,0.511
			c-2.296,0-5.485-3.063-5.485-11.606C5.829-5.889,5.829-7.419,5.957-8.949z M6.212-12.137c0.128-1.786,0.383-3.444,0.638-5.229
			c-0.765-1.021-2.168-1.914-3.826-1.914c-7.015,0-13.775,12.5-13.775,18.111c0,2.552,0.638,3.827,1.914,3.827
			C-6.415,2.657-0.293-3.847,6.212-12.137z M10.803-16.602c8.292-8.801,16.582-24.616,16.582-31.122c0-2.041-0.51-2.806-1.912-2.806
			C21.9-50.529,13.737-34.842,10.803-16.602z"/>
		<path fill="#833746" d="M42.56-8.821C35.162,0.49,29.167,5.847,25.341,5.847c-3.443,0-4.719-3.188-4.719-6.761
			c0-10.075,9.563-20.918,17.854-20.918c2.297,0,4.209,0.766,5.355,2.041c3.316-17.856,11.479-34.056,18.111-34.056
			c2.807,0,4.338,1.785,4.338,5.103c0,7.652-7.016,22.575-19.133,35.586c-0.383,2.806-0.51,5.739-0.51,8.673
			c0,9.82,2.041,12.373,4.719,12.373c1.402,0,2.168-0.512,2.551-0.512c0.127,0,0.383,0.129,0.383,0.384
			c0,0.511-1.914,1.657-4.082,1.657c-4.336,0-7.779-2.935-7.779-13.902C42.433-5.889,42.433-7.292,42.56-8.821z M42.816-12.01
			c0.127-1.786,0.383-3.571,0.637-5.356c-0.766-1.021-2.041-1.914-3.699-1.914c-7.143,0-13.9,12.5-13.9,18.111
			c0,2.552,0.766,3.827,1.914,3.827C30.187,2.657,36.31-3.847,42.816-12.01z M47.534-16.474
			c8.291-8.801,16.453-24.743,16.453-31.249c0-2.041-0.383-2.806-1.784-2.806C58.63-50.529,50.341-35.096,47.534-16.474z"/>
		<path fill="#833746" d="M67.939,2.913c2.807,0,9.693-6.123,14.158-10.97c0.637-0.638,0.893-0.766,1.146-0.766
			c0.383,0,0.766,0.255,0.766,0.638c0,0.256-0.127,0.511-0.51,0.894C76.611,0.49,70.232,5.465,65.515,5.465
			c-2.295,0-4.082-1.148-4.082-4.209c0-2.807,1.531-8.163,2.934-11.226c0.512-1.021,0.256-1.53-0.637-0.511
			c-0.766,0.894-2.168,2.295-3.061,3.188c-0.514,0.639-0.768,0.766-1.148,0.766s-0.639-0.255-0.639-0.639
			c0-0.255,0-0.51,0.383-0.894c3.699-4.082,7.654-8.801,10.588-13.265c0.51-0.766,1.02-1.021,1.529-1.021
			c1.531,0,2.551,2.296,2.551,3.826c0,0.766-0.637,2.168-1.658,4.209c-3.57,6.506-5.611,12.627-5.611,15.307
			C66.664,2.531,67.173,2.913,67.939,2.913z M79.8-36.628c-0.383,0-0.637-0.255-0.637-0.894c0-1.021,0.637-2.423,0.637-3.57
			c0-0.766-0.254-1.147-0.254-1.658c0-1.785,1.785-2.423,2.295-3.188c0.639-0.766,1.021-1.657,2.041-1.657
			c0.766,0,1.146,0.383,1.146,1.402C85.03-42.239,81.714-36.628,79.8-36.628z"/>
		<path fill="#833746" d="M82.349-6.525c-0.383,0-0.637-0.255-0.637-0.639c0-0.255,0-0.51,0.383-0.894
			c3.826-4.209,8.162-9.056,11.352-14.029c1.402-2.041,4.465-3.571,5.102-3.571c0.512,0,0.768,0.255,0.768,1.275
			c0,0.766-0.512,2.679-1.273,5.103L95.107-8.821c-0.512,1.657,0.127,1.53,0.895,0.51c8.418-9.948,11.859-13.646,15.178-13.646
			c2.297,0,3.699,1.786,3.699,5.103c0,3.444-0.895,10.331-0.895,14.03c0,3.57,0.895,4.719,2.424,4.719
			c2.553,0,7.779-5.611,11.734-9.949c0.637-0.638,0.893-0.766,1.146-0.766c0.383,0,0.766,0.255,0.766,0.638
			c0,0.256-0.127,0.511-0.51,0.894c-6.504,7.397-11.861,12.756-16.07,12.756c-2.934,0-5.229-1.786-5.229-6.889
			c0-5.611,1.146-11.479,1.146-13.646c0-1.914-0.51-2.68-1.53-2.68c-1.146,0-2.806,1.402-7.524,7.144
			c-5.611,6.633-7.015,8.93-8.418,13.139l-0.638,1.785c-0.256,1.021-0.767,1.658-4.338,1.658c-0.894,0-1.658-0.383-1.658-1.274
			c0-0.767,0.384-2.041,1.658-5.611L92.3-15.322c0.511-1.658-0.127-1.913-1.147-0.639c-1.912,2.296-5.483,6.505-7.651,8.674
			C82.987-6.653,82.732-6.525,82.349-6.525z"/>
		<path fill="#833746" d="M147.905,15.667c-8.418,27.934-24.614,40.941-37.241,40.941c-5.996,0-9.566-2.934-9.566-8.928
			c0-12.755,21.173-29.976,42.091-33.418c1.53-4.593,2.935-9.438,4.209-15.052l2.551-10.841c0-0.383-0.254-0.511-0.51-0.128
			c-6.634,9.185-15.562,17.092-19.896,17.092c-2.808,0-3.828-2.296-3.828-4.847c0-10.076,11.226-22.321,20.918-22.321
			c2.554,0,4.722,1.147,5.996,2.935l0.51-2.041c0.257-1.147,0.767-1.53,2.296-2.296c1.274-0.639,2.04-0.894,2.297-0.894
			c0.383,0,0.638,0.255,0.638,0.766c0,1.275-1.146,3.315-2.169,6.505c-1.146,4.336-2.551,11.479-7.778,30.483h2.041
			c13.01,0,19.515,6.377,19.515,13.394c0,5.739-5.229,10.331-10.714,10.331c-3.188,0-5.229-2.04-5.229-4.592
			c0-2.04,1.402-3.315,3.062-3.315c1.147,0,1.658,0.511,1.658,1.275c0,0.764-0.511,1.274-1.146,1.274
			c-0.514,0-0.896-0.257-1.404-0.257c-0.254,0-0.51,0.257-0.51,0.767c0,1.786,1.273,3.063,3.314,3.063
			c4.209,0,8.035-3.188,8.035-8.418c0-6.378-5.355-11.606-16.07-11.606C149.946,15.539,148.927,15.539,147.905,15.667z
			 M109.515,53.805c8.928,0,22.83-8.291,32.906-37.499c-20.535,3.954-39.029,20.918-39.029,31.249
			C103.392,52.147,106.198,53.805,109.515,53.805z M148.162-19.408c-8.418,0-17.22,13.52-17.22,19.643
			c0,1.275,0.383,1.913,1.147,1.913c2.422,0,8.035-5.229,12.371-10.459c5.356-6.25,6.633-8.036,6.633-9.312
			C151.095-18.515,149.946-19.408,148.162-19.408z"/>
	</g>
	<g>
		<path fill="#833746" d="M-87.593,68.628c-3.19-3.082-4.891-7.336-4.891-12.332c0-8.507,7.549-15.843,17.756-15.843
			c3.828,0,6.486,1.487,6.486,2.978c0,0.638-0.426,1.382-1.276,1.382c-1.914,0-1.275-3.083-5.422-3.083
			c-8.187,0-14.035,6.272-14.035,14.887c0,4.253,1.276,7.975,3.615,10.737c0.319-0.318,0.744-0.53,1.169-0.852
			c6.061-4.253,12.865-10.102,19.882-17.648c3.19-3.401,6.061-6.485,8.506-9.25c-0.106-2.34-0.106-4.785-0.106-7.549
			c0-13.608,7.549-18.819,12.44-18.819c2.126,0,3.509,1.488,3.509,4.679c0,3.723-2.233,8.188-11.27,18.927
			c0.212,6.061,0.851,11.164,0.851,15.842c0,12.439-9.25,20.946-22.753,20.946c-4.997,0-9.144-1.171-12.227-3.19l-0.957,0.532
			c-5.529,3.614-9.675,4.891-11.802,4.891c-1.808,0-2.658-2.021-2.658-2.87c0-0.317,0.213-0.426,0.851-0.426
			C-96.205,72.564-92.164,71.287-87.593,68.628z M-55.27,54.064c0-3.936-0.319-7.867-0.425-12.121
			c-2.233,2.445-4.572,5.21-7.336,8.188c-7.974,8.719-14.885,14.886-20.52,18.926c2.552,2.127,6.06,3.296,10.419,3.296
			C-63.351,72.351-55.27,65.227-55.27,54.064z M-43.362,16.425c-3.19,0-7.974,5.21-7.974,14.565v3.401
			c6.698-8.188,9.463-13.186,9.463-15.735C-41.873,17.168-42.405,16.425-43.362,16.425z"/>
		<path fill="#833746" d="M-37.906,71.006c4.354,0,10.718-4.802,15.408-9.938c0.558-0.559,0.67-0.67,1.005-0.67
			c0.223,0,0.67,0.224,0.67,0.559c0,0.225-0.224,0.335-0.447,0.781c-6.364,7.258-12.728,11.276-18.087,11.276
			c-4.801,0-6.922-2.457-6.922-6.923c0-6.812,7.034-17.307,14.291-17.307c2.122,0,3.685,1.787,3.685,3.797
			c0,4.688-6.364,10.384-12.84,11.054c-0.335,1.115-0.446,2.232-0.446,3.35C-41.59,69.778-40.362,71.006-37.906,71.006z
			 M-31.541,51.244c-2.568,0-6.922,4.912-8.932,10.271c5.806-0.335,9.937-5.358,9.937-9.044
			C-30.536,51.579-30.871,51.244-31.541,51.244z"/>
		<path fill="#833746" d="M-6.981,62.186c-5.471,5.358-11.165,10.605-14.291,10.605c-2.456,0-3.349-2.01-3.349-4.241
			c0-9.604,10.83-19.764,20.097-19.764c5.136,0,8.039,2.792,8.039,5.918c0,1.229-0.559,1.676-1.34,1.676
			c-0.558,0-1.117-0.336-1.117-1.006c0-0.895,0.67-1.229,0.67-1.785c0-1.229-1.674-2.568-4.243-2.568
			c-8.932,0-17.529,11.946-17.529,17.307c0,0.894,0.335,1.34,1.005,1.34c2.122,0,7.704-4.912,11.388-8.819
			c0.894-0.895,1.117-1.786,1.452-2.346c0.781-1.34,3.349-2.567,3.796-2.567c1.005,0,2.01,1.675,2.01,2.792
			c0,2.231-3.015,8.82-3.015,10.718c0,0.896,0.447,1.229,1.228,1.229c2.457,0,8.374-5.248,12.281-9.603
			c0.559-0.56,0.782-0.671,1.005-0.671c0.335,0,0.67,0.224,0.67,0.559c0,0.225-0.111,0.447-0.446,0.781
			C5.301,68.439-0.17,72.906-4.189,72.906c-2.122,0-3.796-0.894-3.796-3.462c0-1.896,1.117-5.246,1.675-7.033
			C-6.088,61.961-6.534,61.739-6.981,62.186z"/>
		<path fill="#833746" d="M10.993,60.511c2.121-1.676,4.243-3.573,7.592-7.034c2.344-2.231,4.577-4.688,6.475-6.697
			c1.117-1.117,1.564-1.452,2.121-1.452c0.67,0,1.117,0.895,1.117,2.011c0,2.231-1.34,2.902-1.787,4.354
			c-0.445,1.451-1.229,6.812-1.674,10.941c-0.225,1.34-0.336,2.68-0.561,3.796c3.238-0.781,6.029-2.346,8.818-5.357
			c0.447-0.56,0.672-0.671,1.008-0.671c0.443,0,0.67,0.224,0.67,0.559c0,0.225-0.113,0.335-0.447,0.781
			c-3.236,3.686-6.697,5.583-10.494,6.363c-1.115,3.126-3.125,5.023-7.705,5.023c-5.917,0-9.713-5.806-9.713-10.049
			c0-2.68,1.116-4.241,2.456-4.241C9.876,58.835,10.546,59.506,10.993,60.511z M18.919,68.438c-3.239,0-6.365-0.78-8.484-2.121
			c-0.224,0.446-0.224,0.781-0.224,1.341c0,1.896,2.903,3.571,5.025,3.571C17.021,71.229,18.138,70.224,18.919,68.438z
			 M11.439,62.186v0.446c0,0.78-0.111,1.34-0.224,1.785c1.34,1.676,4.354,2.457,7.815,2.457h0.447l0.67-3.351
			c0.56-3.461,1.34-8.374,2.01-11.165c0.111-0.224,0-0.224-0.11,0C19.478,54.704,14.676,59.395,11.439,62.186z"/>
		<path fill="#833746" d="M59.11,61.07c0.56-0.559,0.783-0.67,1.006-0.67c0.334,0,0.671,0.224,0.671,0.559
			c0,0.225-0.111,0.447-0.447,0.781c-2.231,2.68-4.912,3.907-7.256,3.907c-1.341,0-2.681-0.335-3.797-1.115
			c-3.128,4.911-7.703,8.708-11.39,8.708c-4.576,0-6.029-3.351-6.029-6.698c0-9.154,8.375-18.868,15.968-18.868
			c3.237,0,5.358,2.345,5.358,5.918c0,3.014-1.229,6.362-3.017,9.488c0.783,0.781,1.787,1.117,2.904,1.117
			C55.093,64.196,57.103,63.078,59.11,61.07z M48.953,50.461c-4.914,0-12.841,9.269-12.841,16.523c0,2.681,1.115,3.797,3.015,3.797
			c3.017,0,6.362-3.237,8.819-7.369c-0.894-1.115-1.45-2.566-1.45-4.242c0-2.68,1.674-4.021,3.237-4.021
			c0.56,0,1.004,0.111,1.34,0.446c0.11-0.67,0.224-1.339,0.224-1.896C51.296,51.467,50.403,50.461,48.953,50.461z"/>
		<path fill="#833746" d="M86.015,88.869c-2.68-4.912-4.131-11.054-4.131-18.868c0-6.253,1.229-12.84,1.229-15.072
			c0-1.786-0.447-2.456-1.451-2.456c-1.006,0-2.457,1.34-6.588,6.253c-4.912,5.807-6.141,7.927-7.369,11.61L67.148,71.9
			c-0.225,0.782-0.67,1.341-3.797,1.341c-0.781,0-1.451-0.335-1.451-1.116c0-0.67,0.334-1.785,1.451-4.801l4.689-12.729
			c0.445-1.452-0.111-1.676-1.008-0.56c-1.674,2.01-4.801,5.693-6.695,7.703c-0.447,0.446-0.67,0.67-1.006,0.67
			c-0.334,0-0.561-0.224-0.561-0.559c0-0.225,0-0.445,0.336-0.781c3.352-3.685,7.146-7.928,9.938-12.281
			c1.229-1.896,3.906-3.236,4.467-3.236c0.447,0,0.67,0.335,0.67,1.115c0,0.781-0.447,2.346-1.117,4.578l-2.568,9.154
			c-0.445,1.34,0.113,1.34,0.783,0.446c7.367-8.709,10.383-12.06,13.285-12.06c2.121,0,3.35,1.563,3.35,4.578
			c0,3.796-1.117,11.723-1.117,18.197c0,6.364,1.006,11.5,2.793,15.743c9.713-4.243,19.092-7.479,27.129-7.479
			c9.938,0,16.748,4.801,16.748,11.164c0,9.269-7.703,13.286-18.088,13.286c-11.387,0-22.439-3.907-28.582-13.957 M129.669,91.103
			c0-5.693-5.022-9.938-13.063-9.938c-6.922,0-15.854,3.015-26.35,7.593c5.137,10.159,15.295,13.731,26.125,13.731
			C124.198,102.49,129.669,97.578,129.669,91.103z"/>
	</g>
</g>
</svg>
