<?xml version="1.0" encoding="utf-8"?>
<!-- Generator: Adobe Illustrator 16.0.0, SVG Export Plug-In . SVG Version: 6.00 Build 0)  -->
<!DOCTYPE svg PUBLIC "-//W3C//DTD SVG 1.1//EN" "http://www.w3.org/Graphics/SVG/1.1/DTD/svg11.dtd">
<svg version="1.1" id="Layer_1" xmlns="http://www.w3.org/2000/svg" xmlns:xlink="http://www.w3.org/1999/xlink" x="0px" y="0px"
	 width="222.553px" height="262.324px" viewBox="0 0 222.553 262.324" enable-background="new 0 0 222.553 262.324"
	 xml:space="preserve">
<g>
	<path d="M95.621,0c16.925,0,32.156,13.539,36.387,35.54c3.385,17.771,5.924,18.617,11.848,22.002
		c7.615-18.617,33.002-33.849,52.465-33.849c14.385,0,26.232,11.847,26.232,27.079c0,7.615-3.385,12.692-8.463,12.692
		c-3.385,0-9.308-2.538-9.308-5.923c0-4.231,4.23-5.924,4.23-11.001c0-7.616-5.077-13.539-14.385-13.539
		c-16.078,0-41.465,14.386-41.465,29.617c0,5.077,5.077,8.462,5.077,19.463c0,9.308-2.538,15.231-4.23,18.616
		c29.617,13.539,41.464,31.31,41.464,58.389c0,62.619-72.773,103.237-82.928,103.237c-5.924,0-9.309-3.385-10.155-12.693
		c0-9.309-1.692-12.693-9.308-12.693c-14.386,0-24.54-5.923-33.002-14.386c-5.077-5.077-8.463-8.462-12.693-8.462
		c-7.616,0-7.616,20.31-15.231,20.31C18.616,234.399,0,188.704,0,150.625c0-44.85,36.387-74.467,62.619-74.467
		c13.539,0,20.31,4.231,31.31,5.924c-0.846-1.692-1.692-4.231-1.692-6.77c0-21.155,35.541-21.155,35.541-27.925
		c0-16.078-13.539-38.926-34.694-38.926c-4.231,0-9.309,2.538-9.309,6.77s8.462,6.77,8.462,11.001c0,4.23-5.077,9.308-9.308,9.308
		c-5.078,0-10.155-5.077-10.155-14.385C72.773,10.154,82.082,0,95.621,0z M28.771,208.167c1.692,5.923,3.385,5.923,8.462,0.846
		c38.079-38.079,73.62-83.774,73.62-99.006c0-4.231-3.386-6.77-11.001-11.001c-9.309-5.077-16.078-7.616-26.232-7.616
		c-25.387,0-55.004,19.463-55.004,62.62C18.616,175.164,24.54,197.166,28.771,208.167z M61.773,157.395
		c0,5.077-12.693,13.539-22.002,13.539c-7.615,0-10.154-8.462-10.154-16.924c0-7.616,5.924-16.925,12.693-16.925
		C51.618,137.085,61.773,150.625,61.773,157.395z M85.467,121.854c0,8.462-10.154,16.078-16.078,16.078
		c-5.923,0-11.847-8.462-11.847-18.617c0-5.077,4.231-8.462,11.001-8.462C77.851,110.853,85.467,115.93,85.467,121.854z
		 M120.161,102.391c6.77,0,11.847-1.692,16.078-5.077c2.539-3.385,4.231-8.462,4.231-15.231c0-10.154-6.771-16.925-17.771-16.925
		c-13.539,0-19.463,5.078-19.463,14.386C103.237,92.236,114.238,102.391,120.161,102.391z M121.854,241.169
		c9.309,0,54.157-37.233,54.157-78.697c0-31.31-25.386-51.619-47.388-51.619c-8.462,0-17.77,51.619-17.77,110.007
		C110.854,232.707,118.469,241.169,121.854,241.169z M154.855,187.012c0,8.462-5.923,14.385-16.077,14.385
		c-5.924,0-11.001-5.077-11.001-14.385c0-7.616,5.077-11.001,12.693-11.001C148.933,176.011,154.855,180.242,154.855,187.012z
		 M157.395,150.625c0,7.615-5.924,11.847-13.539,11.847c-5.924,0-11.848-8.462-11.848-15.232c0-7.615,5.924-13.539,10.155-13.539
		C146.394,133.7,157.395,141.316,157.395,150.625z"/>
</g>
</svg>
