<?xml version="1.0" encoding="utf-8"?>
<!-- Generator: Adobe Illustrator 16.0.0, SVG Export Plug-In . SVG Version: 6.00 Build 0)  -->
<!DOCTYPE svg PUBLIC "-//W3C//DTD SVG 1.1//EN" "http://www.w3.org/Graphics/SVG/1.1/DTD/svg11.dtd">
<svg version="1.1" id="Layer_1" xmlns="http://www.w3.org/2000/svg" xmlns:xlink="http://www.w3.org/1999/xlink" x="0px" y="0px"
	 width="445.317px" height="245.742px" viewBox="0 0 445.317 245.742" enable-background="new 0 0 445.317 245.742"
	 xml:space="preserve">
<g>
	<path d="M17.756,71.734C8.523,71.734,0,63.921,0,48.296C0,21.307,28.41,0,85.938,0c60.37,0,123.581,31.961,195.315,49.006
		C335.231,26.989,384.237,5.682,411.937,5.682c23.438,0,33.381,8.522,33.381,22.017c0,22.728-35.512,41.904-81.677,41.904
		c-28.409,0-56.108-4.261-83.098-10.653c-29.12,11.364-59.66,22.728-89.489,31.25c17.756,7.102,35.512,13.494,52.557,19.886
		C269.89,98.013,299.72,90.91,327.419,90.91c28.409,0,45.455,9.943,45.455,23.438c0,14.205-12.785,22.728-36.222,22.728
		c-25.568,0-58.239-8.523-93.041-19.176c-34.801,17.045-61.791,44.745-61.791,76.705c0,29.83,24.858,44.035,46.166,44.035
		c26.989,0,42.614-16.335,42.614-38.353c0-15.625-9.943-24.858-19.886-24.858c-8.523,0-15.625,5.682-15.625,13.495
		c0,2.131,1.421,3.551,3.551,3.551c3.551,0,4.972-4.262,8.523-4.262c2.841,0,6.392,2.841,6.392,7.813
		c0,7.103-4.972,11.364-9.943,11.364c-12.074,0-22.017-8.523-22.017-21.307c0-11.364,9.233-22.018,23.438-22.018
		c17.756,0,34.091,14.205,34.091,36.222c0,26.279-19.886,45.455-49.716,45.455c-32.671,0-58.95-18.466-58.95-50.427
		c0-33.381,26.989-61.791,63.211-80.967l-56.819-19.887c-23.438,5.682-46.165,9.233-66.762,9.233
		c-40.483,0-63.921-14.915-63.921-30.54c0-9.233,9.233-17.045,26.279-17.045c23.438,0,63.921,14.205,106.535,29.83
		c28.409-7.813,58.95-19.176,87.359-30.54C198.156,36.932,134.234,8.523,83.808,8.523c-49.717,0-72.444,17.756-72.444,34.802
		c0,7.813,2.841,10.653,4.972,10.653s2.841-2.841,7.103-2.841c5.682,0,8.523,3.551,8.523,7.813
		C31.961,68.183,24.858,71.734,17.756,71.734z M54.688,73.154c0,12.074,23.438,24.148,55.398,24.148
		c17.046,0,35.512-2.841,54.688-7.813C125.001,75.285,90.2,63.211,71.023,63.211C61.791,63.211,54.688,67.473,54.688,73.154z
		 M363.641,115.058c0-9.943-12.784-17.045-39.773-17.045c-22.728,0-48.296,5.682-70.313,14.915
		c31.25,10.653,60.37,18.466,81.677,18.466C354.408,131.394,363.641,123.581,363.641,115.058z M436.795,27.699
		c0-9.233-8.522-13.495-24.858-13.495c-24.858,0-67.472,18.466-116.479,38.353c22.018,4.261,44.745,7.102,68.183,7.102
		C404.124,59.66,436.795,45.455,436.795,27.699z"/>
</g>
</svg>
